<svg width="18" height="18" viewBox="0 0 18 18" fill="none" xmlns="http://www.w3.org/2000/svg">
    <path d="M14.4 9.0001C14.4 9.4978 14.3568 9.9001 13.8591 9.9001H9.89998V13.8592C9.89998 14.356 9.49768 14.4001 8.99998 14.4001C8.50228 14.4001 8.09998 14.356 8.09998 13.8592V9.9001H4.14088C3.64408 9.9001 3.59998 9.4978 3.59998 9.0001C3.59998 8.5024 3.64408 8.1001 4.14088 8.1001H8.09998V4.141C8.09998 3.6433 8.50228 3.6001 8.99998 3.6001C9.49768 3.6001 9.89998 3.6433 9.89998 4.141V8.1001H13.8591C14.3568 8.1001 14.4 8.5024 14.4 9.0001Z" fill="white"/>
</svg>
