<svg width="53" height="41" viewBox="0 0 53 41" fill="none" xmlns="http://www.w3.org/2000/svg">
    <path d="M0 15C0 6.71573 6.71573 0 15 0H53V13C53 28.464 40.464 41 25 41H0V15Z" fill="url(#paint0_linear_1707_818)"/>
    <path d="M32.4 19.0001C32.4 19.4978 32.3568 19.9001 31.8591 19.9001H27.9V23.8592C27.9 24.356 27.4977 24.4001 27 24.4001C26.5023 24.4001 26.1 24.356 26.1 23.8592V19.9001H22.1409C21.6441 19.9001 21.6 19.4978 21.6 19.0001C21.6 18.5024 21.6441 18.1001 22.1409 18.1001H26.1V14.141C26.1 13.6433 26.5023 13.6001 27 13.6001C27.4977 13.6001 27.9 13.6433 27.9 14.141V18.1001H31.8591C32.3568 18.1001 32.4 18.5024 32.4 19.0001Z" fill="white"/>
    <defs>
        <linearGradient id="paint0_linear_1707_818" x1="3.975" y1="38.95" x2="43.1493" y2="-5.73227" gradientUnits="userSpaceOnUse">
            <stop stop-color="#26AD71"/>
            <stop offset="1" stop-color="#32CB4B"/>
        </linearGradient>
    </defs>
</svg>
