<svg width="18" height="18" viewBox="0 0 18 18" fill="none" xmlns="http://www.w3.org/2000/svg">
    <path fill-rule="evenodd" clip-rule="evenodd" d="M16.875 9.00022C16.875 8.85104 16.8157 8.70796 16.7102 8.60248C16.6048 8.49699 16.4617 8.43772 16.3125 8.43772H3.04537L6.58575 4.89847C6.69137 4.79285 6.75071 4.64959 6.75071 4.50022C6.75071 4.35085 6.69137 4.20759 6.58575 4.10197C6.48013 3.99635 6.33687 3.93701 6.1875 3.93701C6.03813 3.93701 5.89487 3.99635 5.78925 4.10197L1.28925 8.60197C1.23687 8.65422 1.1953 8.7163 1.16695 8.78463C1.13859 8.85297 1.12399 8.92623 1.12399 9.00022C1.12399 9.07421 1.13859 9.14747 1.16695 9.21581C1.1953 9.28415 1.23687 9.34622 1.28925 9.39847L5.78925 13.8985C5.89487 14.0041 6.03813 14.0634 6.1875 14.0634C6.33687 14.0634 6.48013 14.0041 6.58575 13.8985C6.69137 13.7928 6.75071 13.6496 6.75071 13.5002C6.75071 13.3508 6.69137 13.2076 6.58575 13.102L3.04537 9.56272H16.3125C16.4617 9.56272 16.6048 9.50346 16.7102 9.39797C16.8157 9.29248 16.875 9.14941 16.875 9.00022Z" fill="#777777"/>
</svg>
