<svg width="60" height="40" viewBox="0 0 60 40" fill="none" xmlns="http://www.w3.org/2000/svg">
    <rect opacity="0.2" x="0.5" y="0.5" width="59" height="39" rx="19.5" stroke="#777777"/>
    <path fill-rule="evenodd" clip-rule="evenodd" d="M37.875 20.0002C37.875 19.851 37.8157 19.708 37.7102 19.6025C37.6048 19.497 37.4617 19.4377 37.3125 19.4377H24.0454L27.5857 15.8985C27.6914 15.7928 27.7507 15.6496 27.7507 15.5002C27.7507 15.3508 27.6914 15.2076 27.5857 15.102C27.4801 14.9963 27.3369 14.937 27.1875 14.937C27.0381 14.937 26.8949 14.9963 26.7892 15.102L22.2892 19.602C22.2369 19.6542 22.1953 19.7163 22.1669 19.7846C22.1386 19.853 22.124 19.9262 22.124 20.0002C22.124 20.0742 22.1386 20.1475 22.1669 20.2158C22.1953 20.2841 22.2369 20.3462 22.2892 20.3985L26.7892 24.8985C26.8949 25.0041 27.0381 25.0634 27.1875 25.0634C27.3369 25.0634 27.4801 25.0041 27.5857 24.8985C27.6914 24.7928 27.7507 24.6496 27.7507 24.5002C27.7507 24.3508 27.6914 24.2076 27.5857 24.102L24.0454 20.5627H37.3125C37.4617 20.5627 37.6048 20.5035 37.7102 20.398C37.8157 20.2925 37.875 20.1494 37.875 20.0002Z" fill="#777777"/>
</svg>
