<svg width="25" height="25" viewBox="0 0 25 25" fill="none" xmlns="http://www.w3.org/2000/svg">
    <path d="M7.50002 9.25H8.00002V8.75V7.5C8.00002 6.30653 8.47413 5.16193 9.31804 4.31802C10.162 3.47411 11.3066 3 12.5 3C13.6935 3 14.8381 3.47411 15.682 4.31802C16.5259 5.16193 17 6.30653 17 7.5V8.75V9.25H17.5H18.75H18.7501C18.9347 9.24999 19.1128 9.31808 19.2504 9.44125C19.388 9.56441 19.4753 9.73398 19.4956 9.9175L19.4956 9.91772L20.7456 21.1675C20.7572 21.2723 20.7465 21.3784 20.7144 21.4788C20.6822 21.5793 20.6292 21.6718 20.5588 21.7503C20.4885 21.8289 20.4024 21.8917 20.3061 21.9348C20.2098 21.9778 20.1055 22 20.0001 22H20H5.00002H4.99999C4.89453 22 4.79026 21.9778 4.69398 21.9348C4.5977 21.8917 4.51157 21.8289 4.44122 21.7503C4.37087 21.6718 4.31788 21.5793 4.2857 21.4788C4.25355 21.3785 4.2429 21.2725 4.25447 21.1677C4.25447 21.1677 4.25448 21.1676 4.25448 21.1676C4.25448 21.1676 4.25449 21.1675 4.25449 21.1675L5.50447 9.91772L5.50449 9.9175C5.5248 9.73398 5.61209 9.56441 5.74965 9.44125C5.8872 9.31808 6.06535 9.24999 6.24999 9.25H6.25002H7.50002ZM15 9.25H15.5V8.75V7.5C15.5 6.70435 15.184 5.94129 14.6213 5.37868C14.0587 4.81607 13.2957 4.5 12.5 4.5C11.7044 4.5 10.9413 4.81607 10.3787 5.37868C9.8161 5.94129 9.50003 6.70435 9.50003 7.5V8.75V9.25H10H15ZM7.51259 11.2626C7.1844 11.5908 7.00002 12.0359 7.00002 12.5C7.00002 12.9641 7.1844 13.4092 7.51259 13.7374C7.84078 14.0656 8.2859 14.25 8.75003 14.25C9.21415 14.25 9.65927 14.0656 9.98746 13.7374C10.3157 13.4092 10.5 12.9641 10.5 12.5C10.5 12.0359 10.3157 11.5908 9.98746 11.2626C9.65927 10.9344 9.21415 10.75 8.75003 10.75C8.2859 10.75 7.84078 10.9344 7.51259 11.2626ZM16.25 10.75C15.7859 10.75 15.3408 10.9344 15.0126 11.2626C14.6844 11.5908 14.5 12.0359 14.5 12.5C14.5 12.9641 14.6844 13.4092 15.0126 13.7374C15.3408 14.0656 15.7859 14.25 16.25 14.25C16.7142 14.25 17.1593 14.0656 17.4875 13.7374C17.8157 13.4092 18 12.9641 18 12.5C18 12.0359 17.8157 11.5908 17.4875 11.2626C17.1593 10.9344 16.7142 10.75 16.25 10.75Z" fill="#777777" stroke="#777777"/>
    <circle cx="22" cy="3" r="3" fill="#EC534A"/>
</svg>
