<svg width="7" height="7" viewBox="0 0 7 7" fill="none" xmlns="http://www.w3.org/2000/svg">
    <path d="M3.50007 6.52422C3.45585 6.52447 3.41201 6.516 3.37107 6.49928C3.33013 6.48255 3.29289 6.45791 3.26149 6.42677L0.650606 3.81253C0.323107 3.4816 0.139404 3.03483 0.139404 2.56925C0.139404 2.10366 0.323107 1.65689 0.650606 1.32597C0.980667 0.996837 1.42777 0.812012 1.89389 0.812012C2.36 0.812012 2.8071 0.996837 3.13717 1.32597L3.50007 1.68887L3.86297 1.32597C4.19303 0.996837 4.64013 0.812012 5.10625 0.812012C5.57237 0.812012 6.01947 0.996837 6.34953 1.32597C6.67703 1.65689 6.86073 2.10366 6.86073 2.56925C6.86073 3.03483 6.67703 3.4816 6.34953 3.81253L3.73864 6.42677C3.70725 6.45791 3.67001 6.48255 3.62907 6.49928C3.58813 6.516 3.54429 6.52447 3.50007 6.52422Z" fill="#F1F3F2"/>
</svg>
