<svg width="50" height="50" viewBox="0 0 50 50" fill="none" xmlns="http://www.w3.org/2000/svg">
    <rect width="50" height="50" rx="18" fill="#F1F4F3"/>
    <path d="M34.5625 18.2502H31.6075C31.4077 17.6158 31.0109 17.0617 30.4746 16.6684C29.9384 16.2751 29.2907 16.063 28.6256 16.063C27.9606 16.063 27.3129 16.2751 26.7766 16.6684C26.2404 17.0617 25.8435 17.6158 25.6437 18.2502H16.4375C16.1889 18.2502 15.9504 18.3489 15.7746 18.5248C15.5988 18.7006 15.5 18.939 15.5 19.1877C15.5 19.4363 15.5988 19.6748 15.7746 19.8506C15.9504 20.0264 16.1889 20.1252 16.4375 20.1252H25.6425C25.8423 20.7595 26.2391 21.3136 26.7754 21.7069C27.3116 22.1003 27.9593 22.3123 28.6244 22.3123C29.2894 22.3123 29.9371 22.1003 30.4734 21.7069C31.0096 21.3136 31.4065 20.7595 31.6063 20.1252H34.5625C34.8111 20.1252 35.0496 20.0264 35.2254 19.8506C35.4012 19.6748 35.5 19.4363 35.5 19.1877C35.5 18.939 35.4012 18.7006 35.2254 18.5248C35.0496 18.3489 34.8111 18.2502 34.5625 18.2502Z" fill="#194B38"/>
    <path d="M16.4375 28.8752C16.1889 28.8752 15.9504 28.974 15.7746 29.1498C15.5988 29.3256 15.5 29.5641 15.5 29.8127C15.5 30.0613 15.5988 30.2998 15.7746 30.4756C15.9504 30.6514 16.1889 30.7502 16.4375 30.7502H19.3925C19.592 31.385 19.9887 31.9396 20.5252 32.3333C21.0616 32.7271 21.7096 32.9394 22.375 32.9394C23.0404 32.9394 23.6884 32.7271 24.2248 32.3333C24.7613 31.9396 25.158 31.385 25.3575 30.7502H34.5625C34.8111 30.7502 35.0496 30.6514 35.2254 30.4756C35.4012 30.2998 35.5 30.0613 35.5 29.8127C35.5 29.5641 35.4012 29.3256 35.2254 29.1498C35.0496 28.974 34.8111 28.8752 34.5625 28.8752H25.3575C25.158 28.2404 24.7613 27.6858 24.2248 27.2921C23.6884 26.8983 23.0404 26.686 22.375 26.686C21.7096 26.686 21.0616 26.8983 20.5252 27.2921C19.9887 27.6858 19.592 28.2404 19.3925 28.8752H16.4375Z" fill="#194B38"/>
</svg>
