<svg width="7" height="7" viewBox="0 0 7 7" fill="none" xmlns="http://www.w3.org/2000/svg">
    <path d="M3.50001 6.52422C3.45578 6.52447 3.41195 6.516 3.37101 6.49928C3.33007 6.48255 3.29283 6.45791 3.26143 6.42677L0.650545 3.81253C0.323046 3.4816 0.139343 3.03483 0.139343 2.56925C0.139343 2.10366 0.323046 1.65689 0.650545 1.32597C0.980606 0.996837 1.42771 0.812012 1.89382 0.812012C2.35994 0.812012 2.80704 0.996837 3.1371 1.32597L3.50001 1.68887L3.86291 1.32597C4.19297 0.996837 4.64007 0.812012 5.10619 0.812012C5.57231 0.812012 6.01941 0.996837 6.34947 1.32597C6.67697 1.65689 6.86067 2.10366 6.86067 2.56925C6.86067 3.03483 6.67697 3.4816 6.34947 3.81253L3.73858 6.42677C3.70718 6.45791 3.66995 6.48255 3.62901 6.49928C3.58807 6.516 3.54423 6.52447 3.50001 6.52422Z" fill="#F1F3F2"/>
</svg>
