<svg width="20" height="20" viewBox="0 0 20 20" fill="none" xmlns="http://www.w3.org/2000/svg">
    <path d="M17.5583 14.0248L15.8333 12.2582C15.4623 11.9055 14.9942 11.6718 14.4894 11.5871C13.9845 11.5025 13.4658 11.5707 13 11.7832L12.25 11.0332C13.1338 9.85226 13.5374 8.38039 13.3796 6.91386C13.2218 5.44732 12.5143 4.09502 11.3995 3.12916C10.2847 2.16331 8.84545 1.65563 7.37139 1.70832C5.89733 1.76101 4.49796 2.37015 3.45498 3.41314C2.41199 4.45612 1.80285 5.85549 1.75016 7.32955C1.69747 8.80361 2.20515 10.2429 3.171 11.3577C4.13686 12.4725 5.48916 13.18 6.9557 13.3378C8.42223 13.4956 9.8941 13.092 11.075 12.2082L11.8167 12.9498C11.5792 13.4162 11.4942 13.9453 11.5734 14.4626C11.6526 14.9799 11.8922 15.4593 12.2583 15.8332L14.025 17.5998C14.4938 18.068 15.1292 18.331 15.7917 18.331C16.4542 18.331 17.0896 18.068 17.5583 17.5998C17.7965 17.367 17.9856 17.0889 18.1148 16.782C18.244 16.475 18.3105 16.1454 18.3105 15.8123C18.3105 15.4793 18.244 15.1496 18.1148 14.8427C17.9856 14.5357 17.7965 14.2577 17.5583 14.0248ZM10.4917 10.4915C9.90853 11.0732 9.16609 11.469 8.35812 11.6289C7.55015 11.7888 6.71292 11.7057 5.95217 11.39C5.19143 11.0743 4.5413 10.5403 4.08393 9.85528C3.62656 9.1703 3.38245 8.36514 3.38245 7.5415C3.38245 6.71786 3.62656 5.91269 4.08393 5.22771C4.5413 4.54274 5.19143 4.00868 5.95217 3.69301C6.71292 3.37733 7.55015 3.2942 8.35812 3.45412C9.16609 3.61404 9.90853 4.00983 10.4917 4.5915C10.8797 4.97854 11.1876 5.43834 11.3976 5.94455C11.6077 6.45076 11.7158 6.99343 11.7158 7.5415C11.7158 8.08956 11.6077 8.63223 11.3976 9.13844C11.1876 9.64465 10.8797 10.1044 10.4917 10.4915ZM16.3833 16.3832C16.3059 16.4613 16.2137 16.5233 16.1121 16.5656C16.0106 16.6079 15.9017 16.6297 15.7917 16.6297C15.6817 16.6297 15.5727 16.6079 15.4712 16.5656C15.3696 16.5233 15.2775 16.4613 15.2 16.3832L13.4333 14.6165C13.3552 14.539 13.2932 14.4469 13.2509 14.3453C13.2086 14.2438 13.1868 14.1348 13.1868 14.0248C13.1868 13.9148 13.2086 13.8059 13.2509 13.7043C13.2932 13.6028 13.3552 13.5106 13.4333 13.4332C13.5108 13.3551 13.603 13.2931 13.7045 13.2508C13.8061 13.2084 13.915 13.1867 14.025 13.1867C14.135 13.1867 14.2439 13.2084 14.3455 13.2508C14.447 13.2931 14.5392 13.3551 14.6167 13.4332L16.3833 15.1998C16.4614 15.2773 16.5234 15.3695 16.5657 15.471C16.6081 15.5726 16.6298 15.6815 16.6298 15.7915C16.6298 15.9015 16.6081 16.0104 16.5657 16.112C16.5234 16.2135 16.4614 16.3057 16.3833 16.3832Z" fill="#4CBB5E" stroke="#4CBB5E" stroke-width="0.2"/>
</svg>
